<?xml version="1.0" encoding="utf-8"?>
<!-- Svg Vector Icons : http://www.onlinewebfonts.com/icon -->
<!DOCTYPE svg PUBLIC "-//W3C//DTD SVG 1.1//EN" "http://www.w3.org/Graphics/SVG/1.1/DTD/svg11.dtd">
<svg version="1.1" xmlns="http://www.w3.org/2000/svg" xmlns:xlink="http://www.w3.org/1999/xlink" x="0px" y="0px" viewBox="0 0 1000 1000" enable-background="new 0 0 1000 1000" xml:space="preserve">
<metadata> Svg Vector Icons : http://www.onlinewebfonts.com/icon </metadata>
<g><path d="M500.1,729L45.5,227c-7.6-8.4-20.4-9-28.8-1.4c-8.4,7.5-9,20.4-1.4,28.8l469.6,518.6c0.5,0.5,1,1,1.5,1.5c0,0,0,0,0,0c1.5,1.4,3.3,2.5,5.1,3.4c0,0,0.1,0,0.1,0c0.6,0.3,1.2,0.5,1.8,0.7c0.1,0,0.2,0,0.2,0.1c0.6,0.2,1.1,0.4,1.7,0.5c0,0,0.1,0,0.1,0c5.2,1.2,10.8,0.4,15.5-2.5c1-0.6,2-1.3,2.9-2.2c0,0,0,0,0,0c0.1-0.1,0.1-0.1,0.2-0.2c0.4-0.4,0.8-0.8,1.2-1.2l0.1-0.1c0,0,0.1-0.1,0.1-0.1l469.3-518.5c3.5-3.9,5.3-8.8,5.3-13.7c0-5.6-2.3-11.1-6.7-15.1c-8.3-7.6-21.2-6.9-28.8,1.4L500.1,729z"/></g>
</svg>